<?xml version="1.0" encoding="UTF-8" standalone="no"?>
<!-- Generator: Adobe Illustrator 19.0.0, SVG Export Plug-In . SVG Version: 6.00 Build 0)  -->

<svg
   xmlns:dc="http://purl.org/dc/elements/1.1/"
   xmlns:cc="http://creativecommons.org/ns#"
   xmlns:rdf="http://www.w3.org/1999/02/22-rdf-syntax-ns#"
   xmlns:svg="http://www.w3.org/2000/svg"
   xmlns="http://www.w3.org/2000/svg"
   xmlns:sodipodi="http://sodipodi.sourceforge.net/DTD/sodipodi-0.dtd"
   xmlns:inkscape="http://www.inkscape.org/namespaces/inkscape"
   version="1.1"
   id="Capa_1"
   x="0px"
   y="0px"
   viewBox="0 0 52 52"
   style="enable-background:new 0 0 52 52;"
   xml:space="preserve"
   sodipodi:docname="add-hover.svg"
   inkscape:version="0.92.4 (5da689c313, 2019-01-14)"><metadata
   id="metadata39"><rdf:RDF><cc:Work
       rdf:about=""><dc:format>image/svg+xml</dc:format><dc:type
         rdf:resource="http://purl.org/dc/dcmitype/StillImage" /></cc:Work></rdf:RDF></metadata><defs
   id="defs37" /><sodipodi:namedview
   pagecolor="#ffffff"
   bordercolor="#666666"
   borderopacity="1"
   objecttolerance="10"
   gridtolerance="10"
   guidetolerance="10"
   inkscape:pageopacity="0"
   inkscape:pageshadow="2"
   inkscape:window-width="1920"
   inkscape:window-height="1018"
   id="namedview35"
   showgrid="false"
   inkscape:zoom="3.2091769"
   inkscape:cx="-17.60999"
   inkscape:cy="14.113631"
   inkscape:window-x="-8"
   inkscape:window-y="-8"
   inkscape:window-maximized="1"
   inkscape:current-layer="Capa_1" />

<g
   id="g4">
</g>
<g
   id="g6">
</g>
<g
   id="g8">
</g>
<g
   id="g10">
</g>
<g
   id="g12">
</g>
<g
   id="g14">
</g>
<g
   id="g16">
</g>
<g
   id="g18">
</g>
<g
   id="g20">
</g>
<g
   id="g22">
</g>
<g
   id="g24">
</g>
<g
   id="g26">
</g>
<g
   id="g28">
</g>
<g
   id="g30">
</g>
<g
   id="g32">
</g>
<path
   inkscape:connector-curvature="0"
   d="m 26.008186,0.01377114 c -14.336,0 -26.00000007,11.66299986 -26.00000007,25.99999986 0,14.337 11.66400007,26 26.00000007,26 14.336,0 26,-11.663 26,-26 0,-14.337 -11.664,-25.99999986 -26,-25.99999986 z m 12.5,27.99999986 h -10.5 v 11 c 0,1.104 -0.896,2 -2,2 -1.104,0 -2,-0.896 -2,-2 v -11 h -10.5 c -1.104,0 -2,-0.896 -2,-2 0,-1.104 0.896,-2 2,-2 h 10.5 v -10 c 0,-1.104 0.896,-2 2,-2 1.104,0 2,0.896 2,2 v 10 h 10.5 c 1.104,0 2,0.896 2,2 0,1.104 -0.896,2 -2,2 z"
   id="path2"
   style="fill:#d3d640;fill-opacity:1" /></svg>