<?xml version="1.0" encoding="UTF-8" standalone="no"?>
<!-- Generator: Adobe Illustrator 19.0.0, SVG Export Plug-In . SVG Version: 6.00 Build 0)  -->

<svg
   xmlns:dc="http://purl.org/dc/elements/1.1/"
   xmlns:cc="http://creativecommons.org/ns#"
   xmlns:rdf="http://www.w3.org/1999/02/22-rdf-syntax-ns#"
   xmlns:svg="http://www.w3.org/2000/svg"
   xmlns="http://www.w3.org/2000/svg"
   xmlns:sodipodi="http://sodipodi.sourceforge.net/DTD/sodipodi-0.dtd"
   xmlns:inkscape="http://www.inkscape.org/namespaces/inkscape"
   version="1.1"
   id="Capa_1"
   x="0px"
   y="0px"
   viewBox="0 0 512 512"
   style="enable-background:new 0 0 512 512;"
   xml:space="preserve"
   sodipodi:docname="delete-hover.svg"
   inkscape:version="0.92.4 (5da689c313, 2019-01-14)"><metadata
   id="metadata61"><rdf:RDF><cc:Work
       rdf:about=""><dc:format>image/svg+xml</dc:format><dc:type
         rdf:resource="http://purl.org/dc/dcmitype/StillImage" /><dc:title></dc:title></cc:Work></rdf:RDF></metadata><defs
   id="defs59" /><sodipodi:namedview
   pagecolor="#ffffff"
   bordercolor="#666666"
   borderopacity="1"
   objecttolerance="10"
   gridtolerance="10"
   guidetolerance="10"
   inkscape:pageopacity="0"
   inkscape:pageshadow="2"
   inkscape:window-width="1920"
   inkscape:window-height="1018"
   id="namedview57"
   showgrid="false"
   inkscape:zoom="0.4609375"
   inkscape:cx="256"
   inkscape:cy="256"
   inkscape:window-x="-8"
   inkscape:window-y="-8"
   inkscape:window-maximized="1"
   inkscape:current-layer="Capa_1" />
<g
   id="g6"
   style="fill:#d3d640;fill-opacity:1">
	<g
   id="g4"
   style="fill:#d3d640;fill-opacity:1">
		<path
   d="M436,60h-90V45c0-24.813-20.187-45-45-45h-90c-24.813,0-45,20.187-45,45v15H76c-24.813,0-45,20.187-45,45v30    c0,8.284,6.716,15,15,15h16.183L88.57,470.945c0.003,0.043,0.007,0.086,0.011,0.129C90.703,494.406,109.97,512,133.396,512    h245.207c23.427,0,42.693-17.594,44.815-40.926c0.004-0.043,0.008-0.086,0.011-0.129L449.817,150H466c8.284,0,15-6.716,15-15v-30    C481,80.187,460.813,60,436,60z M196,45c0-8.271,6.729-15,15-15h90c8.271,0,15,6.729,15,15v15H196V45z M393.537,468.408    c-0.729,7.753-7.142,13.592-14.934,13.592H133.396c-7.792,0-14.204-5.839-14.934-13.592L92.284,150h327.432L393.537,468.408z     M451,120h-15H76H61v-15c0-8.271,6.729-15,15-15h105h150h105c8.271,0,15,6.729,15,15V120z"
   id="path2"
   style="fill:#d3d640;fill-opacity:1" />
	</g>
</g>
<g
   id="g12">
	<g
   id="g10">
		<path
   d="M256,180c-8.284,0-15,6.716-15,15v212c0,8.284,6.716,15,15,15s15-6.716,15-15V195C271,186.716,264.284,180,256,180z"
   id="path8"
   style="fill:#d3d640;fill-opacity:1" />
	</g>
</g>
<g
   id="g18">
	<g
   id="g16">
		<path
   d="M346,180c-8.284,0-15,6.716-15,15v212c0,8.284,6.716,15,15,15s15-6.716,15-15V195C361,186.716,354.284,180,346,180z"
   id="path14"
   style="fill:#d3d640;fill-opacity:1" />
	</g>
</g>
<g
   id="g24">
	<g
   id="g22">
		<path
   d="M166,180c-8.284,0-15,6.716-15,15v212c0,8.284,6.716,15,15,15s15-6.716,15-15V195C181,186.716,174.284,180,166,180z"
   id="path20"
   style="fill:#d3d640;fill-opacity:1" />
	</g>
</g>
<g
   id="g26">
</g>
<g
   id="g28">
</g>
<g
   id="g30">
</g>
<g
   id="g32">
</g>
<g
   id="g34">
</g>
<g
   id="g36">
</g>
<g
   id="g38">
</g>
<g
   id="g40">
</g>
<g
   id="g42">
</g>
<g
   id="g44">
</g>
<g
   id="g46">
</g>
<g
   id="g48">
</g>
<g
   id="g50">
</g>
<g
   id="g52">
</g>
<g
   id="g54">
</g>
</svg>